<svg xmlns="http://www.w3.org/2000/svg" viewBox="0 0 107 125"><path d="M68,90H16a5.07,5.07,0,0,1-5-5.1V17.1A5.07,5.07,0,0,1,16,12H68a5.07,5.07,0,0,1,5,5.1V84.9A5.07,5.07,0,0,1,68,90" fill="#00d1c1"/><path d="M48,106a6,6,0,1,1-6-6,6,6,0,0,1,6,6" fill="#ffb402"/><path d="M84,81.47v29.59A12.1,12.1,0,0,1,71.78,123H12.22A12.1,12.1,0,0,1,0,111.05V12.95A12.1,12.1,0,0,1,12.22,1H71.78A12.1,12.1,0,0,1,84,12.95v6.91a1,1,0,0,1-2,0V12.95A10.1,10.1,0,0,0,71.78,3H12.22A10.1,10.1,0,0,0,2,12.95v98.11A10.1,10.1,0,0,0,12.22,121H71.78A10.1,10.1,0,0,0,82,111.05V81.47a1,1,0,0,1,2,0Zm23-30A24.54,24.54,0,1,1,98.51,33l6.61-12.44a1,1,0,1,1,1.77.94L100,34.39A24.41,24.41,0,0,1,107,51.5Zm-2,0a22.41,22.41,0,0,0-6-15.25L85.52,61.67A4.41,4.41,0,0,1,81.93,64h-.35A4.43,4.43,0,0,1,78,62.21L70.2,51.69A1,1,0,1,1,71.8,50.5L79.61,61a2.49,2.49,0,0,0,4.15-.29L97.54,34.79A22.49,22.49,0,1,0,105,51.5Z" fill="#565a5c"/></svg>
