<svg xmlns="http://www.w3.org/2000/svg" viewBox="0 0 142 125"><path d="M100.07,74.75C98.39,83.3,94.86,94.29,89.5,102,83,111.33,78,113.5,70,108c-4.5-3.09-7.16-6-11.5-14-2.08-3.83,1.57-5.6,4.34-4.36,4.8,2.14,22.43,10.44,30.29-11.29.7-1.93,2.09-5,2.91-7.2C97.18,68.2,101.32,68.43,100.07,74.75ZM91.2,44.26c6.32-2.8,4.66-6.82,4.1-8.42a38.25,38.25,0,0,0-2.46-5.49C88.6,23.29,83,18.86,77.1,18.86c-8.12,0-15.75,8.46-20,20.62a61.63,61.63,0,0,0-2.9,12.79c-.3,2.53-.47,8.9,4.45,6.56C64.66,56,85.35,46.85,91.2,44.26ZM115,6.5h-5V2a1,1,0,0,0-2,0V6.5h-5a1,1,0,0,0,0,2h5V14a1,1,0,0,0,2,0V8.5h5a1,1,0,0,0,0-2ZM29,109H24v-5a1,1,0,0,0-2,0v5H17a1,1,0,0,0,0,2h5v5a1,1,0,0,0,2,0v-5h5a1,1,0,0,0,0-2Z" fill="#ffb402"/><path d="M76.63,15c15.67,0,27.94,21.07,27.94,48a84.06,84.06,0,0,1-3,22.76,1,1,0,0,0,1.92.55A86.11,86.11,0,0,0,106.57,63c0-28.49-12.87-50-29.94-50L76,13v0H60.48c-5.8-.11-11.54,2.47-16.63,7.46C34.55,29.58,29,45.49,29,63c0,14.12,3.77,27.3,10.62,37.13C46.2,109.58,55.08,115,64,115H75a1,1,0,0,0,.12-2C60.3,111.15,48.69,89.17,48.69,63,48.69,36.07,61,15,76.63,15ZM43.3,24H57.46a50.06,50.06,0,0,0-7,14L35.29,38A46.34,46.34,0,0,1,43.3,24Zm25.23,89H64c-8.25,0-16.54-5.11-22.74-14-.23-.32-.44-.66-.66-1h14C58.33,105,63.11,110.25,68.53,113ZM53.62,96H39.35C34,86.89,31,75.32,31,63a73,73,0,0,1,3.57-23l15.23,0A81.45,81.45,0,0,0,46.69,63C46.69,75.42,49.29,87,53.62,96Zm5.43-74H45.15l.11-.11c4.69-4.6,10-7,15.21-6.88h7.43A27,27,0,0,0,59.05,22Zm45,77h-2V95a9,9,0,0,0-18,0v4H82a3,3,0,0,0-3,3v20a3,3,0,0,0,3,3h22a3,3,0,0,0,3-3V102A3,3,0,0,0,104,99ZM86,95a7,7,0,0,1,14,0v4H86Zm19,27a1,1,0,0,1-1,1H82a1,1,0,0,1-1-1V102a1,1,0,0,1,1-1h22a1,1,0,0,1,1,1ZM93,106a4,4,0,0,0-2.61,7L90,116.79a1.1,1.1,0,0,0,.27.85l.36.36H94.9a1.09,1.09,0,0,0,.81-.36l.32-.4L95.61,113A4,4,0,0,0,93,106Zm1,5.72-.55.33.4,4H92.11l.4-4-.55-.33a2,2,0,1,1,2.09,0Z" fill="#565a5c"/></svg>
